<svg width="28" height="30" viewBox="0 0 28 30" fill="none" xmlns="http://www.w3.org/2000/svg">
<path d="M10.2096 26.6952V22.6062C10.2096 21.5662 11.0575 20.7211 12.108 20.7141H15.9561C17.0116 20.7141 17.8673 21.5612 17.8673 22.6062V22.6062V26.7079C17.8671 27.5909 18.579 28.3126 19.4707 28.3333H22.0361C24.5935 28.3333 26.6666 26.2809 26.6666 23.7491V23.7491V12.1171C26.653 11.1211 26.1806 10.1858 25.3839 9.57737L16.6103 2.58039C15.0732 1.36208 12.8883 1.36208 11.3512 2.58039L2.61601 9.59007C1.81632 10.196 1.34316 11.1329 1.33331 12.1298V23.7491C1.33331 26.2809 3.40648 28.3333 5.96386 28.3333H8.52926C9.44312 28.3333 10.1839 27.5999 10.1839 26.6952V26.6952" stroke="#999999" stroke-width="1.5" stroke-linecap="round" stroke-linejoin="round"/>
</svg>
