<svg width="25" height="24" viewBox="0 0 25 24" fill="none" xmlns="http://www.w3.org/2000/svg">
<path fill-rule="evenodd" clip-rule="evenodd" d="M9.54449 11.1017C9.03408 11.1017 8.63049 11.4983 8.63049 12C8.63049 12.49 9.03408 12.8983 9.54449 12.8983H16.6666V18.475C16.6666 21.3333 14.3044 23.6667 11.3844 23.6667H5.6036C2.69541 23.6667 0.333252 21.345 0.333252 18.4867V5.52499C0.333252 2.65499 2.70728 0.333328 5.61547 0.333328H11.4081C14.3044 0.333328 16.6666 2.65499 16.6666 5.51333V11.1017H9.54449ZM20.9018 7.96356L24.3084 11.3586C24.4834 11.5336 24.5768 11.7552 24.5768 12.0002C24.5768 12.2336 24.4834 12.4669 24.3084 12.6302L20.9018 16.0252C20.7268 16.2002 20.4934 16.2936 20.2718 16.2936C20.0384 16.2936 19.8051 16.2002 19.6301 16.0252C19.2801 15.6752 19.2801 15.1036 19.6301 14.7536L21.4968 12.8986H16.6668V11.1019H21.4968L19.6301 9.2469C19.2801 8.8969 19.2801 8.32523 19.6301 7.97523C19.9801 7.61356 20.5518 7.61356 20.9018 7.96356Z" fill="#FF9385"/>
</svg>
