<svg width="24" height="24" viewBox="0 0 24 24" fill="none" xmlns="http://www.w3.org/2000/svg">
<path d="M18.9048 14.7068C18.6026 14.9996 18.4638 15.4231 18.5326 15.8384L19.5698 21.5784C19.6573 22.0649 19.452 22.5573 19.0448 22.8384C18.6458 23.1301 18.115 23.1651 17.6798 22.9318L12.5126 20.2368C12.333 20.1411 12.1335 20.0898 11.9293 20.0839H11.6131C11.5035 20.1003 11.3961 20.1353 11.2981 20.1889L6.12979 22.8968C5.87429 23.0251 5.58495 23.0706 5.30145 23.0251C4.61079 22.8944 4.14995 22.2364 4.26312 21.5423L5.30145 15.8023C5.37029 15.3834 5.23145 14.9576 4.92929 14.6601L0.716452 10.5768C0.364119 10.2349 0.241619 9.72161 0.402619 9.25845C0.558952 8.79645 0.957952 8.45928 1.43979 8.38345L7.23812 7.54228C7.67912 7.49678 8.06645 7.22845 8.26479 6.83178L10.8198 1.59345C10.8805 1.47678 10.9586 1.36945 11.0531 1.27845L11.1581 1.19678C11.213 1.13612 11.276 1.08595 11.346 1.04512L11.4731 0.998449L11.6715 0.916782H12.1626C12.6013 0.962282 12.9875 1.22478 13.1893 1.61678L15.7781 6.83178C15.9648 7.21328 16.3276 7.47811 16.7465 7.54228L22.5448 8.38345C23.0348 8.45345 23.4443 8.79178 23.6065 9.25845C23.7593 9.72628 23.6275 10.2396 23.2681 10.5768L18.9048 14.7068Z" fill="#FF9385"/>
</svg>
